<svg width="902" height="310" viewBox="0 0 902 310" fill="none" xmlns="http://www.w3.org/2000/svg">
<path fill-rule="evenodd" clip-rule="evenodd" d="M211.44 0.00101588L152.833 113.291C152.148 114.462 151.431 115.607 150.681 116.725L151.645 116.999C170.275 130.394 181.125 153.568 177.088 178.202L171.907 209.824C193.833 208.712 214.879 202.896 233.793 194.223C220.071 168.265 217.28 136.975 228.983 107.852C242.717 73.6709 271.969 57.3335 300.079 59.333C327.612 61.2914 353.879 81.8449 353.879 115.641C353.879 131.999 346.627 148.578 336.799 163.085C327.499 176.812 314.77 190.363 299.647 202.538C309.114 207.26 320.252 210.018 332.812 210.018C357.479 210.018 381.232 203.898 402.33 194.223C388.608 168.265 385.818 136.975 397.52 107.852C411.255 73.6709 440.506 57.3335 468.617 59.333C496.149 61.2914 522.416 81.8449 522.416 115.641C522.416 131.999 515.165 148.578 505.337 163.085C496.037 176.812 483.308 190.363 468.185 202.538C477.652 207.26 488.79 210.018 501.349 210.018C526.017 210.018 549.77 203.898 570.868 194.223C557.146 168.265 554.355 136.975 566.058 107.852C579.792 73.6709 609.044 57.3335 637.154 59.333C664.687 61.2914 690.954 81.8449 690.954 115.641C690.954 131.999 683.702 148.578 673.874 163.085C664.574 176.812 651.845 190.363 636.722 202.538C646.189 207.26 657.328 210.017 669.887 210.017C687.231 210.017 704.145 206.999 720.067 201.797C723.409 181.706 726.689 161.603 729.878 141.493C738.247 88.7204 783.261 51.9868 830.418 59.4464C877.576 66.9061 909.02 115.734 900.651 168.507C892.282 221.28 847.269 258.013 800.112 250.554C784.249 248.044 770.164 240.854 758.774 230.408C757.522 237.99 755.932 247.798 754.181 258.597C751.538 274.894 748.53 293.445 745.768 310H702.021L712.404 247.312C698.761 250.289 684.521 251.963 669.887 251.963C641.435 251.963 616.988 242.569 598.324 227.522C570.08 242.139 536.847 251.963 501.349 251.963C472.897 251.963 448.451 242.569 429.787 227.522C401.543 242.139 368.31 251.963 332.812 251.963C304.36 251.963 279.913 242.569 261.249 227.522C233.005 242.139 199.772 251.961 164.274 251.961C142.28 251.961 125.526 232.341 129.067 210.732L135.503 171.449C137.595 158.687 127.7 147.1 114.711 147.1H54.3135L38.5383 247.584H0L35.4136 0.00101588H78.1182L60.7975 105.155H97.9872C106.113 104.536 113.471 99.9821 117.608 92.8999L164.569 0L211.44 0.00101588ZM269.967 172.43C283.806 161.794 294.652 150.281 301.867 139.631C309.356 128.577 311.745 120.253 311.745 115.641C311.745 107.497 306.411 101.835 297.076 101.171C288.319 100.548 275.436 105.181 268.103 123.43C261.656 139.474 262.722 157.21 269.967 172.43ZM438.505 172.43C452.344 161.794 463.19 150.281 470.405 139.631C477.894 128.577 480.282 120.253 480.282 115.641C480.282 107.497 474.948 101.835 465.614 101.171C456.856 100.548 443.974 105.181 436.641 123.43C430.194 139.474 431.259 157.21 438.505 172.43ZM638.942 139.631C631.727 150.281 620.881 161.794 607.042 172.43C599.797 157.21 598.732 139.474 605.178 123.43C612.511 105.181 625.394 100.548 634.151 101.171C643.486 101.835 648.82 107.497 648.82 115.641C648.82 120.253 646.431 128.577 638.942 139.631ZM857.759 161.722C853.594 187.986 831.192 206.267 807.723 202.555C784.254 198.842 768.605 174.542 772.77 148.278C776.935 122.015 799.337 103.733 822.806 107.446C846.275 111.158 861.924 135.458 857.759 161.722Z" fill="white"/>
</svg>
